<svg xmlns="http://www.w3.org/2000/svg" width="140.768" height="26.236" viewBox="0 0 140.768 26.236">
  <g id="Group_2" data-name="Group 2" transform="translate(0 0)">
    <path id="Path_482" data-name="Path 482" d="M673.466,50.188h7.344l7.428-6.97h-7.321Z" transform="translate(-664.271 -36.851)" fill="#fff"/>
    <path id="Path_483" data-name="Path 483" d="M666.48,56.722h16.306l5.411-5.093H671.93Z" transform="translate(-664.271 -36.851)" fill="#fff"/>
    <path id="Path_484" data-name="Path 484" d="M664.271,63.083h26.234V36.851H664.271Zm1.492-24.737h23.244V61.588H665.763Z" transform="translate(-664.271 -36.851)" fill="#fff"/>
    <path id="Path_485" data-name="Path 485" d="M716.469,44.966h10.306v4.949h3.309V36.856h-3.309v4.962H716.469V36.856h-3.309V49.915h3.309Z" transform="translate(-664.271 -36.851)" fill="#fff"/>
    <path id="Path_486" data-name="Path 486" d="M749.113,46.778H735.194V44.965h13.141V41.818H735.194V40h13.919V36.855H731.885V49.916h17.228Z" transform="translate(-664.271 -36.851)" fill="#fff"/>
    <path id="Path_487" data-name="Path 487" d="M753.834,40.881l9.95,9.036h3.839V36.856h-3.309v8.993l-9.9-8.982h-3.893v13.05h3.311Z" transform="translate(-664.271 -36.851)" fill="#fff"/>
    <path id="Path_488" data-name="Path 488" d="M782.925,49.916a3.385,3.385,0,0,0,3.419-3.351V36.856h-3.309V45.7a1.093,1.093,0,0,1-1.1,1.081h-8.446a1.093,1.093,0,0,1-1.105-1.081v-8.84h-3.306v9.709a3.385,3.385,0,0,0,3.418,3.351Z" transform="translate(-664.271 -36.851)" fill="#fff"/>
    <path id="Path_489" data-name="Path 489" d="M791.8,44.966h9.033a.937.937,0,0,1,.947.93.9.9,0,0,1-.947.882h-12.89v3.137H800.9a4.049,4.049,0,1,0,0-8.1h-9.033a.942.942,0,0,1-.949-.931.9.9,0,0,1,.949-.884h12.705V36.856H791.8a4.056,4.056,0,1,0,0,8.11" transform="translate(-664.271 -36.851)" fill="#fff"/>
    <path id="Path_490" data-name="Path 490" d="M706.712,44.973h1.02a4.059,4.059,0,1,0,0-8.117H694.77V49.917h3.311V44.973h3.973l5.016,4.944h4.645Zm-8.631-3.155V40.005h9.558a.907.907,0,1,1,0,1.813Z" transform="translate(-664.271 -36.851)" fill="#fff"/>
    <path id="Path_491" data-name="Path 491" d="M780.559,55.891h8.83l-.01-1.66h-9.888a1.543,1.543,0,0,0-1.525,1.561v5.683a1.545,1.545,0,0,0,1.525,1.563h9.888l.01-1.613h-8.83a.805.805,0,0,1-.8-.811V56.705a.8.8,0,0,1,.8-.814" transform="translate(-664.271 -36.851)" fill="#fff"/>
    <path id="Path_492" data-name="Path 492" d="M801.974,57.828h-6.509a.977.977,0,0,1-.983-.971.951.951,0,0,1,.983-.94h8.853V54.246h-8.9a2.627,2.627,0,1,0,0,5.254h6.509a.981.981,0,0,1,.984.974.952.952,0,0,1-.984.937h-8.989v1.667h9.037a2.626,2.626,0,1,0,0-5.25" transform="translate(-664.271 -36.851)" fill="#fff"/>
    <path id="Path_493" data-name="Path 493" d="M758.57,55.891l4.277.021,0,7.166h1.787l0-7.171h4.281V54.232H758.57Z" transform="translate(-664.271 -36.851)" fill="#fff"/>
    <rect id="Rectangle_31" data-name="Rectangle 31" width="1.782" height="8.846" transform="translate(107.999 17.381)" fill="#fff"/>
    <path id="Path_494" data-name="Path 494" d="M753.291,57.828h-6.509a.975.975,0,0,1-.981-.971.951.951,0,0,1,.981-.94h8.853V54.246h-8.9a2.627,2.627,0,1,0,0,5.254h6.507a.981.981,0,0,1,.986.974.951.951,0,0,1-.986.937h-8.985v1.667h9.035a2.626,2.626,0,1,0,0-5.25" transform="translate(-664.271 -36.851)" fill="#fff"/>
    <rect id="Rectangle_32" data-name="Rectangle 32" width="1.785" height="8.846" transform="translate(74.462 17.381)" fill="#fff"/>
    <path id="Path_495" data-name="Path 495" d="M696.484,54.242h-1.789l.018,8.845h11.251v-1.66l-9.48-.018Z" transform="translate(-664.271 -36.851)" fill="#fff"/>
    <path id="Path_496" data-name="Path 496" d="M718.086,54.231h-8.378a1.54,1.54,0,0,0-1.519,1.561v5.684a1.54,1.54,0,0,0,1.519,1.56h8.378a1.541,1.541,0,0,0,1.522-1.56V55.792a1.54,1.54,0,0,0-1.522-1.561m-.269,6.383a.806.806,0,0,1-.8.811h-6.239a.806.806,0,0,1-.8-.811V56.7a.805.805,0,0,1,.8-.812h6.239a.805.805,0,0,1,.8.812Z" transform="translate(-664.271 -36.851)" fill="#fff"/>
    <path id="Path_497" data-name="Path 497" d="M732.921,57.708H727.5l-.007,1.661h4.359a.8.8,0,0,1,.8.812v.433a.805.805,0,0,1-.8.812h-6.3a.806.806,0,0,1-.8-.812V56.7a.806.806,0,0,1,.8-.813h8.857V54.242l-9.927-.011a1.539,1.539,0,0,0-1.52,1.561v5.682a1.541,1.541,0,0,0,1.52,1.564h8.439a1.544,1.544,0,0,0,1.522-1.564v-2.2a1.543,1.543,0,0,0-1.522-1.563" transform="translate(-664.271 -36.851)" fill="#fff"/>
  </g>
</svg>
